<svg width="13cm" height="15cm" viewBox="0 0 260 300" xml:space="preserve" xmlns="http://www.w3.org/2000/svg">
  <g style="overflow:hidden;stroke-width:5.00787271;stroke-dasharray:none;stroke:#000;stroke-opacity:1">
    <g style="stroke-width:5.00787271;stroke-dasharray:none;stroke:#000;stroke-opacity:1" stroke="#f93e3e" stroke-width="5.879" stroke-linecap="round" stroke-linejoin="round" stroke-miterlimit="10" fill="none" fill-rule="evenodd">
      <path d="M2461 692.258s74.62-8.368 101.27 25.105 43.02 96.995 42.26 109.168c27.41 11.411 63.58 7.988 63.58 7.988s11.42-27.388 8.37-44.884c-3.04-17.498-17.41-42.247-19.8-49.45-2.37-7.202 3.43-15.595 11.81-26.246S2665.82 674 2665.82 674s-9.51 23.583-19.42 28.148c-9.89 4.564-9.51 31.191-9.51 31.191s-14.46-46.407-73.1-56.296c-58.63-9.89-102.79 15.215-102.79 15.215" style="stroke-width:5.00787271;stroke-dasharray:none;stroke:#000;stroke-opacity:1" transform="matrix(.19988 0 0 .1995 -309.735 -96.876)"/>
      <path d="M2461 692.042s66.29-73.811 185 9.958m-42 125c-43.62 88.009-82.29 119.683-154 165m218-157s-57.67 195.13-214 285m-4-128s8.59 64.81 3.25 128" style="stroke-width:5.00787271;stroke-dasharray:none;stroke:#000;stroke-opacity:1" transform="matrix(.19988 0 0 .1995 -309.735 -96.876)"/>
      <path d="m2450.74 992-25.74 21.46s6.9 112.62 2.68 122.54c17.63-9.54 26.32-16.05 26.32-16.05m-29.65-107.04s-17.8-2.29-22.35.39c9.85 32.8 10.21 98.71 4.17 129.7 10.24-2.21 20.83-7.64 20.83-7.64M2595 844s19.05 8.512 33.3 10.566c7.33 1.055 31.7 3.434 31.7 3.434m-76 6s23.25 9.554 36.41 11.607C2630.33 877.154 2652 878 2652 878m-75-3s25.71 9.208 32.81 10.89C2621.2 888.583 2646 890 2646 890m-82 4s22.73 8.793 38.12 12.702c9.74 2.473 35.88 2.295 35.88 2.295M2324 1047s26.22-11.08 33.71-20.58 21.96-12.05 44.29-12.42" style="stroke-width:5.00787271;stroke-dasharray:none;stroke:#000;stroke-opacity:1" transform="matrix(.19988 0 0 .1995 -309.735 -96.876)"/>
      <path d="M2450 991.875s-22.99-12.303-80 26.125m-67.78 71s10.29 15.98 13 22.8c2.72 6.83 4.78 20.2 4.78 20.2s-16.73-1.46-24.02-4.66c-7.28-3.21-18.98-12.9-18.98-12.9m-8.11 4.56s7.76 9.22 8.08 22.46c.31 13.25-2.19 23.54-2.19 23.54s-15.24-4.48-24.66-13.29c-9.42-8.8-11.12-18.35-11.12-18.35m-21.3 3.64s9.92 7.87 2.61 23.28C2213 1175.68 2200 1189 2200 1189m0-120c19.33 0 35 15.89 35 35.5s-15.67 35.5-35 35.5" style="stroke-width:5.00787271;stroke-dasharray:none;stroke:#000;stroke-opacity:1" transform="matrix(.19988 0 0 .1995 -309.735 -96.876)"/>
      <path d="M2200 1085c10.49 0 19 8.73 19 19.5s-8.51 19.5-19 19.5m123.39-77s15.43 10.49 20.2 17.05c4.77 6.57 8.41 20.54 8.41 20.54s-18.45 3.25-25.93 2.2-18.07-6.88-18.07-6.88" style="stroke-width:5.00787271;stroke-dasharray:none;stroke:#000;stroke-opacity:1" transform="matrix(.19988 0 0 .1995 -309.735 -96.876)"/>
      <path d="M2328 1022c-6.73 66.31-61.47 118-128 118" style="stroke-width:5.00787271;stroke-dasharray:none;stroke:#000;stroke-opacity:1" transform="matrix(.19988 0 0 .1995 -309.735 -96.876)"/>
      <path d="M2302 1020c-4.38 40.42-30.7 73.89-67 87" style="stroke-width:5.00787271;stroke-dasharray:none;stroke:#000;stroke-opacity:1" transform="matrix(.19988 0 0 .1995 -309.735 -96.876)"/>
      <path d="M2281.6 1004c3.78 40.35-19.84 72.04-50.6 84" style="stroke-width:5.00787271;stroke-dasharray:none;stroke:#000;stroke-opacity:1" transform="matrix(.19988 0 0 .1995 -309.735 -96.876)"/>
      <path d="M2281 1004s9.93 12.59 20.5 15.24c10.59 2.65 23.38 2.76 26.46 2.76s5.85-8.76 42.04-4.44" style="stroke-width:5.00787271;stroke-dasharray:none;stroke:#000;stroke-opacity:1" transform="matrix(.19988 0 0 .1995 -309.735 -96.876)"/>
      <path d="M2200 1015.67s24.77 11.41 44.58 8.99c19.8-2.42 74.96-31.438 35.58-95.66m21.84 90 6-23" style="stroke-width:5.00787271;stroke-dasharray:none;stroke:#000;stroke-opacity:1" transform="matrix(.19988 0 0 .1995 -309.735 -96.876)"/>
      <path d="m2291 988.106 25 9.894s-4.55-17.435-1.34-28M2293 959.365s11.64 8.947 30 10.635c-7-12.191.87-26.935-12.48-35" style="stroke-width:5.00787271;stroke-dasharray:none;stroke:#000;stroke-opacity:1" transform="matrix(.19988 0 0 .1995 -309.735 -96.876)"/>
      <path d="M2340.08 852s-13.18 25.738-23.89 31.098-13.86 4.705-21.11 9.28c-4.07 2.575-14.08 11.431-14.08 31.257 0 8.681-.18 11.249 17.35 12.009 29.19 4.292 28.47-31.516 22.19-35.001-9.12 1.658-15.08 15.821-15.08 15.821s3.92-9.19 11.14-14.026c4.74-3.173 10.48-3.515 14.24-4.905 14.54-5.367 13.81-26.391 9.24-45.533M2200 997.273s16.69 18.427 37.89 14.057c21.19-4.37 54.31-31.151 28.95-69.33" style="stroke-width:5.00787271;stroke-dasharray:none;stroke:#000;stroke-opacity:1" transform="matrix(.19988 0 0 .1995 -309.735 -96.876)"/>
      <path d="M2276.77 923.826c-2.56 10.294-8.68 19.174-19.38 19.174-10.71 0-19.39-8.584-19.39-19.174s8.68-19.174 19.39-19.174c4.65 0 15.96-.993 23.7-.528 5.65.339-2.88 13.931-4.32 19.703z" style="stroke-width:5.00787271;stroke-dasharray:none;stroke:#000;stroke-opacity:1" transform="matrix(.19988 0 0 .1995 -309.735 -96.876)"/>
      <path d="M2243.92 923.436c0-5.246 4.25-9.5 9.5-9.5s9.5 4.254 9.5 9.5-4.25 9.5-9.5 9.5-9.5-4.253-9.5-9.5" style="stroke-width:5.00787271;stroke-dasharray:none;stroke:#000;stroke-opacity:1" transform="matrix(.19988 0 0 .1995 -309.735 -96.876)"/>
      <path d="M2200 982.212s22.81 16.445 38.3 14.651c17.31-2.005 34.74-34.271 12.86-45.454-9.63-4.921-14.34.066-23.66-6.299-10.09-6.897-10.23-21.067 1.42-39.534 12.56-19.915 35.29-15.91 43.7-18.182 8.4-2.273 13.85-14.394 13.85-14.394s9.53 12.686.94 27.345M2200 887.002s33.73-.633 28.44 17.998" style="stroke-width:5.00787271;stroke-dasharray:none;stroke:#000;stroke-opacity:1" transform="matrix(.19988 0 0 .1995 -309.735 -96.876)"/>
      <path d="M2221.57 921s-1.26 5.586-4.66 13.447c-3.42 7.861-7.36 12.534-7.36 12.534s38.95 18.48 37.41 27.815c-1.55 9.336-15.88 22.86-46.96-7.598" style="stroke-width:5.00787271;stroke-dasharray:none;stroke:#000;stroke-opacity:1" transform="matrix(.19988 0 0 .1995 -309.735 -96.876)"/>
      <path d="M2200 967.207c31.08 30.443 45.41 16.926 46.96 7.595 1.54-9.331-37.41-27.802-37.41-27.802s-4.59 13.049-.4 16.392c0 0 22.73 1.351 10.98 19.108" style="stroke-width:5.00787271;stroke-dasharray:none;stroke:#000;stroke-opacity:1" transform="matrix(.19988 0 0 .1995 -309.735 -96.876)"/>
      <path d="M2209.24 947s-6.09 9.422-5.14 12.465c.96 3.042 13.45 7.589 14.93 15.727 1.49 8.139.82 7.806.82 7.806M2200 839c5.52 0 10 4.253 10 9.5s-4.48 9.5-10 9.5" style="stroke-width:5.00787271;stroke-dasharray:none;stroke:#000;stroke-opacity:1" transform="matrix(.19988 0 0 .1995 -309.735 -96.876)"/>
      <path d="M2200 811s15.62 14.337 7.82 31m-7.82 34s15.98-4.076 7.54-21m-.54-13s18.01.981 18 6.546-17.92 6.454-17.92 6.454m.92 0s52.89 11.046 70 28m-53-34.425s41.12-8.331 82 38.425m-90.77-45s7.22-2.131 12.38-6.696 6.37-8.366 6.37-8.366c.22.22-1.81-4.21-6.37-8.039s-12.38-5.412-12.38-5.412.16-10.739-2.41-16.779C2211.24 790.667 2200 779 2200 779" style="stroke-width:5.00787271;stroke-dasharray:none;stroke:#000;stroke-opacity:1" transform="matrix(.19988 0 0 .1995 -309.735 -96.876)"/>
      <path d="M2235 827s55.12 14.2 90 48m-125-239s6.3 12.979 9.25 17.657c2.94 4.678 7.91 10.607 7.91 10.607s1.11 6.631 0 10.009c-1.11 3.376-6.72 9.088-6.72 9.088s-.56 16.522 4.4 27.876c4.97 11.353 10.46 15.573 10.46 15.573s3.14 10.662.88 16.852c-2.27 6.19-5.43 11.504-5.43 11.504l5.97 9.834M2200 755s6.04 11.765 8.97 15.63c2.94 3.864 7.8 7.913 7.8 7.913s.51 4.777 0 7.911c-.51 3.135-3.52 10.547-3.52 10.547M2217 778s12.42-14.645 17.24-19.018C2239.07 754.609 2245 751 2245 751m0 0s7.11 10.168 8.86 15.422c1.76 5.253.95 13.578.95 13.578M2214 796.542 2228.59 782s10.34 22.527 8.09 33" style="stroke-width:5.00787271;stroke-dasharray:none;stroke:#000;stroke-opacity:1" transform="matrix(.19988 0 0 .1995 -309.735 -96.876)"/>
      <path d="M2236 798.822s7.65-9.526 11.82-13.497c4.15-3.971 12.95-10.325 12.95-10.325s4.05 14.389 5.14 22.418C2266.99 805.447 2267 823 2267 823" style="stroke-width:5.00787271;stroke-dasharray:none;stroke:#000;stroke-opacity:1" transform="matrix(.19988 0 0 .1995 -309.735 -96.876)"/>
      <path d="M2216 813s43.8 1.586 61 17m.08-.552L2267 812.229s8.03-4.25 11.93-5.202c3.89-.952 6.9.794 10.99-.756 4.08-1.55 11.98-9.271 11.98-9.271s4.97 17.216 2.33 25.883c-2.65 8.667-17.89 22.117-17.89 22.117" style="stroke-width:5.00787271;stroke-dasharray:none;stroke:#000;stroke-opacity:1" transform="matrix(.19988 0 0 .1995 -309.735 -96.876)"/>
      <path d="M2304 822.772s11.81-5.974 17.18-9.955C2326.56 808.835 2336 799 2336 799s-.1 23.021-1.91 35.749c-1.82 12.728-9.41 40.251-9.41 40.251" style="stroke-width:5.00787271;stroke-dasharray:none;stroke:#000;stroke-opacity:1" transform="matrix(.19988 0 0 .1995 -309.735 -96.876)"/>
      <path d="M2294 838s11.06-2.794 19.7-4.499c8.64-1.706 20.3 1.492 20.3 1.492M2282 1207c0 2.76-2.24 5-5 5s-5-2.24-5-5 2.24-5 5-5 5 2.24 5 5" style="stroke-width:5.00787271;stroke-dasharray:none;stroke:#000;stroke-opacity:1" transform="matrix(.19988 0 0 .1995 -309.735 -96.876)"/>
      <path d="M2200 1225.34s25.99 10.73 42.28 13.05c16.27 2.33 35.5 4.83 54.43-.85 18.94-5.68 39.01-22.14 54.12-39.81 15.13-17.67 30.17-63.73 30.17-63.73m25 9-35 16m-171 68s8.16 8.08 10.86 12.78c2.69 4.71 7.19 10.97 5.92 17.13-1.28 6.14-16.78 11.09-16.78 11.09m0 64s8.16-8.08 10.86-12.78c2.69-4.71 7.19-10.97 5.92-17.13-1.28-6.14-16.78-11.09-16.78-11.09m53-12s-8.09-8.17-12.78-10.86c-4.71-2.69-10.97-7.19-17.13-5.92-6.14 1.28-11.09 16.78-11.09 16.78m41 0s-8.09 8.64-12.78 11.5c-4.71 2.85-10.97 7.61-17.13 6.26-6.14-1.35-11.09-17.76-11.09-17.76" style="stroke-width:5.00787271;stroke-dasharray:none;stroke:#000;stroke-opacity:1" transform="matrix(.19988 0 0 .1995 -309.735 -96.876)"/>
      <path d="M2200 1268c6.62 0 12 5.14 12 11.5 0 6.35-5.38 11.5-12 11.5m476.68-487.379s13.75-7.554 24.77-28.273S2718.51 724 2718.51 724c25.35 86.047 13.02 151.93-80.51 185" style="stroke-width:5.00787271;stroke-dasharray:none;stroke:#000;stroke-opacity:1" transform="matrix(.19988 0 0 .1995 -309.735 -96.876)"/>
      <path d="M2660 858c18.75-11.162 40.49-31.999 57-54m7.72 29c11.23 89.533-53.41 117.219-116.72 131" style="stroke-width:5.00787271;stroke-dasharray:none;stroke:#000;stroke-opacity:1" transform="matrix(.19988 0 0 .1995 -309.735 -96.876)"/>
      <path d="M2627 929.998c23.04.157 44.48-7.5 61-20.998m22 4c-.91 101.72-91.66 117.56-147 113.41" style="stroke-width:5.00787271;stroke-dasharray:none;stroke:#000;stroke-opacity:1" transform="matrix(.19988 0 0 .1995 -309.735 -96.876)"/>
      <path d="M2682 992c-24.65 105.82-99.55 79.13-155 75" style="stroke-width:5.00787271;stroke-dasharray:none;stroke:#000;stroke-opacity:1" transform="matrix(.19988 0 0 .1995 -309.735 -96.876)"/>
      <path d="M2636 1064c-52.85 72.67-105.47 48.17-152 36.22" style="stroke-width:5.00787271;stroke-dasharray:none;stroke:#000;stroke-opacity:1" transform="matrix(.19988 0 0 .1995 -309.735 -96.876)"/>
      <path d="M2605 1098c-31.86 81.47-120.38 43.83-167 31.83" style="stroke-width:5.00787271;stroke-dasharray:none;stroke:#000;stroke-opacity:1" transform="matrix(.19988 0 0 .1995 -309.735 -96.876)"/>
      <path d="M2406 1143c43.65 70.39 135.66 35.44 151 3.68" style="stroke-width:5.00787271;stroke-dasharray:none;stroke:#000;stroke-opacity:1" transform="matrix(.19988 0 0 .1995 -309.735 -96.876)"/>
      <path d="M2364 1175c53.31 38.46 105.65 52.47 147 4.35" style="stroke-width:5.00787271;stroke-dasharray:none;stroke:#000;stroke-opacity:1" transform="matrix(.19988 0 0 .1995 -309.735 -96.876)"/>
      <path d="M2336 1213.2c31 29.84 92.78 38.75 114-.2m142-224.297c27.06 3.256 49.65.747 75-11.703m-117 65c25.16 11.96 57.61 12.17 84 5.99M2507 1083c17.93 10.96 47.75 14.57 69 12.4m-113 18.6c20 12.23 46.22 15.37 67 18m-103 4c12.86 16.45 39.49 27.61 59 30m-115-7c21.31 18.09 42.84 25.72 62 31" style="stroke-width:5.00787271;stroke-dasharray:none;stroke:#000;stroke-opacity:1" transform="matrix(.19988 0 0 .1995 -309.735 -96.876)"/>
      <path d="M2353 1196c15.61 10.58 31.26 21.51 59 27m312-487.563c99.2-79.623 45.59-195.564 13.97-247.437 31.83 18.073 190.44 123.428-12.51 345" style="stroke-width:5.00787271;stroke-dasharray:none;stroke:#000;stroke-opacity:1" transform="matrix(.19988 0 0 .1995 -309.735 -96.876)"/>
      <path d="M2823.91 600c58.47 141.774 6.68 247.314-113.91 313" style="stroke-width:5.00787271;stroke-dasharray:none;stroke:#000;stroke-opacity:1" transform="matrix(.19988 0 0 .1995 -309.735 -96.876)"/>
      <path d="M2842.24 759c10.18 100.038-84.27 214.167-160.24 233" style="stroke-width:5.00787271;stroke-dasharray:none;stroke:#000;stroke-opacity:1" transform="matrix(.19988 0 0 .1995 -309.735 -96.876)"/>
      <path d="M2838.53 813c14.38 131.501-78.57 230.49-209.53 254" style="stroke-width:5.00787271;stroke-dasharray:none;stroke:#000;stroke-opacity:1" transform="matrix(.19988 0 0 .1995 -309.735 -96.876)"/>
      <path d="M2817 938c-17.48 132.49-96.63 146.7-212 160" style="stroke-width:5.00787271;stroke-dasharray:none;stroke:#000;stroke-opacity:1" transform="matrix(.19988 0 0 .1995 -309.735 -96.876)"/>
      <path d="M2557 1147.07c100.75 27.51 206.72-30.75 219-107.07" style="stroke-width:5.00787271;stroke-dasharray:none;stroke:#000;stroke-opacity:1" transform="matrix(.19988 0 0 .1995 -309.735 -96.876)"/>
      <path d="M2484 1201.21c95.25 11.17 233.09 11.62 261-100.21" style="stroke-width:5.00787271;stroke-dasharray:none;stroke:#000;stroke-opacity:1" transform="matrix(.19988 0 0 .1995 -309.735 -96.876)"/>
      <path d="M2423 1236.12c83.17 26.52 201.66 22.57 256-53.12" style="stroke-width:5.00787271;stroke-dasharray:none;stroke:#000;stroke-opacity:1" transform="matrix(.19988 0 0 .1995 -309.735 -96.876)"/>
      <path d="M2352 1261.62c59.74 66.41 186.99 20.14 246-21.62" style="stroke-width:5.00787271;stroke-dasharray:none;stroke:#000;stroke-opacity:1" transform="matrix(.19988 0 0 .1995 -309.735 -96.876)"/>
      <path d="M2336.52 1213c-8.72 60.59 21.17 54.61 62.48 26.7M2729 780c16.08-18.851 48.7-53.079 51-67m36 45c-11.2 41.748-61.7 90.264-91 114m-19 75c35.58-13.751 76.4-56.903 77-57m-112 136c45.73-8.57 88.15-42.63 100-59m-151 116c42.19-6.21 62.36-10.16 101-27m-131 70.73c46.85 3.18 120.12-23.09 123-25.73m-202 78.24c49.79 13.94 143.7-7.17 145-7.24m-206 41c48.35 20.09 102.43 14.54 137 13.57M2389 1247c20.45 21.92 66.42 28.36 96 26.77" style="stroke-width:5.00787271;stroke-dasharray:none;stroke:#000;stroke-opacity:1" transform="matrix(.19988 0 0 .1995 -309.735 -96.876)"/>
      <path d="M2223 1262s84.41-9.01 112-27m-92 36s82.65-11.84 95-20m-85 28s62.01-3.18 99-17m-112 28s88.78-.54 121-18m-150 128c0 6.08-4.92 11-11 11s-11-4.92-11-11c0-6.07 4.92-11 11-11s11 4.93 11 11" style="stroke-width:5.00787271;stroke-dasharray:none;stroke:#000;stroke-opacity:1" transform="matrix(.19988 0 0 .1995 -309.735 -96.876)"/>
      <path d="M2223 1400.5c0 12.43-10.3 22.5-23 22.5s-23-10.07-23-22.5 10.3-22.5 23-22.5 23 10.07 23 22.5" style="stroke-width:5.00787271;stroke-dasharray:none;stroke:#000;stroke-opacity:1" transform="matrix(.19988 0 0 .1995 -309.735 -96.876)"/>
      <path d="M2235 1400.5c0 19.61-15.67 35.5-35 35.5s-35-15.89-35-35.5 15.67-35.5 35-35.5 35 15.89 35 35.5m-35 335.33c10.41.95 20.97-7.11 21.58-4.19 21.83 104.61 22.04 204.64-21.58 255.36m22-255c31.08-22.3 67.34-15.23 97.46-35.36 2.25-1.5 35.85-16.52 34.5-17.86-80.13-64.59-96.23-147.64-101.63-249.78" style="stroke-width:5.00787271;stroke-dasharray:none;stroke:#000;stroke-opacity:1" transform="matrix(.19988 0 0 .1995 -309.735 -96.876)"/>
      <path d="M2200 1664c43.88 0 78.96-13 107-34m-107 12c60.29 0 72.03-10.92 96-29m-96 11c28.41 0 63-9.69 88-27m-67.77-166c23.05 26.4-11.72 37.66-20.23 64" style="stroke-width:5.00787271;stroke-dasharray:none;stroke:#000;stroke-opacity:1" transform="matrix(.19988 0 0 .1995 -309.735 -96.876)"/>
      <path d="M2227.93 1452c10.45 81.96 16.95 101.17 28.93 137.4 2.84 8.55-38.9 15.6-56.86 15.6m36 249c21.72 2.32 65.33 24.87 63.97 48" style="stroke-width:5.00787271;stroke-dasharray:none;stroke:#000;stroke-opacity:1" transform="matrix(.19988 0 0 .1995 -309.735 -96.876)"/>
      <path d="M2296.71 1890.44c-8.22 6.66-21.99 22.2-19.99 34.28 5.87 35.43 62.21 2.64 52.06-31.34-12.62-42.33-79.27-77.49-98.78-114.38" style="stroke-width:5.00787271;stroke-dasharray:none;stroke:#000;stroke-opacity:1" transform="matrix(.19988 0 0 .1995 -309.735 -96.876)"/>
      <path d="M2235 1821c20.13 10.61 54.59 30.23 62 50m-38-58c19.89 20.81 99.34 31.78 94.81 68" style="stroke-width:5.00787271;stroke-dasharray:none;stroke:#000;stroke-opacity:1" transform="matrix(.19988 0 0 .1995 -309.735 -96.876)"/>
      <path d="M2350.08 1866.39c-13.27 4.87-25.72 21.59-17.54 35.23 14.03 23.4 73.57-13.25 48.27-48.7-33.79-47.35-129.37-62.2-132.81-133.92" style="stroke-width:5.00787271;stroke-dasharray:none;stroke:#000;stroke-opacity:1" transform="matrix(.19988 0 0 .1995 -309.735 -96.876)"/>
      <path d="M2222 1732c4.31 6.23 8.6 12.47 12.91 18.69 16.68 24.06 32.13 42.79 57.34 57.99 15.99 9.63 39.05 19.28 49.75 34.32m-58-133c13.02 25.28 30.86 40.29 49.31 53.31 21.6 15.24 38.87 16.67 69.01 30.2 8.9 3.99 19.9 11 25.53 19.11 57.81 83.29-83.75 77.98-29.72 21.78" style="stroke-width:5.00787271;stroke-dasharray:none;stroke:#000;stroke-opacity:1" transform="matrix(.19988 0 0 .1995 -309.735 -96.876)"/>
      <path d="M2321 1806c30.02 15.24 78.18 7.08 87 44m-144-135c29.41 54.71 46.1 59.82 88.36 75.88 18.97 7.21 47.05 18.6 58.64 28.12m-84-126c70.44 88.13 128.01 46.15 177.47 100.15 50.32 54.94-83.32 66.51-34.23 13.95" style="stroke-width:5.00787271;stroke-dasharray:none;stroke:#000;stroke-opacity:1" transform="matrix(.19988 0 0 .1995 -309.735 -96.876)"/>
      <path d="M2369 1780c12.37 4.61 29.06 10 42.46 11.23 29 2.67 55.08-8.28 61.54 25.77m-165-114c25.64 60.36 145.3 77.37 163 84m-245-411c68.41-9.44 109-56.96 109-93" style="stroke-width:5.00787271;stroke-dasharray:none;stroke:#000;stroke-opacity:1" transform="matrix(.19988 0 0 .1995 -309.735 -96.876)"/>
      <path d="M2236 1408c88.01-14.68 133-81.57 133-129" style="stroke-width:5.00787271;stroke-dasharray:none;stroke:#000;stroke-opacity:1" transform="matrix(.19988 0 0 .1995 -309.735 -96.876)"/>
      <path d="M2221 1431c107.59-8.25 163-89.91 163-145m-128 82 12 32m9-40 14 30m5-42 18 28m3-43 15 24m-6-42 23 23m-15-45 29 15m-163 37.02s37.61-1.55 56 22.98m-31 7 18-19" style="stroke-width:5.00787271;stroke-dasharray:none;stroke:#000;stroke-opacity:1" transform="matrix(.19988 0 0 .1995 -309.735 -96.876)"/>
      <path d="M2260 1425.37s8.33 11.98 13.97 17.01c5.63 5.03 19.56 12.62 19.56 12.62s5.92-13.77 6.43-21.3c.51-7.52-3.61-22.7-3.61-22.7m20.65-10.96s11.02 8.65 17.82 11.07c6.81 2.43 22.18 2.89 22.18 2.89s-1.12-13.8-2.92-20.13-7.9-17.87-7.9-17.87m10.82-10.89s11.59 5.13 18.06 5.79 19.94-2.15 19.94-2.15-3.19-12.46-6.4-18.18c-3.21-5.73-12.72-15.57-12.72-15.57m4.12-18s32.89-.05 42-20" style="stroke-width:5.00787271;stroke-dasharray:none;stroke:#000;stroke-opacity:1" transform="matrix(.19988 0 0 .1995 -309.735 -96.876)"/>
      <path d="M2444 1301s0 59.46-47.5 112.63S2257 1487 2257 1487" style="stroke-width:5.00787271;stroke-dasharray:none;stroke:#000;stroke-opacity:1" transform="matrix(.19988 0 0 .1995 -309.735 -96.876)"/>
      <path d="M2465 1293s.49 72.36-50.95 131.88C2362.62 1484.38 2263 1507 2263 1507" style="stroke-width:5.00787271;stroke-dasharray:none;stroke:#000;stroke-opacity:1" transform="matrix(.19988 0 0 .1995 -309.735 -96.876)"/>
      <path d="M2464.98 1293.07c244.05-5.18 223.45 281.41-11.98 286.93m0 0s2.02 56.7 62 80m0-.1s21.96 1.53 41.27-5.74 64.37-22.59 80.65-21.05c16.28 1.53 37.6 24.11 5.16 37.89m.08 0s4.82 12.09 3.66 19c-1.16 6.92-11.35 19.82-11.35 19.82s5.72 12.79 4.67 19.13c-1.04 6.34-10.14 16.05-10.14 16.05m-94-67.07s57.27 1.26 107-6.93" style="stroke-width:5.00787271;stroke-dasharray:none;stroke:#000;stroke-opacity:1" transform="matrix(.19988 0 0 .1995 -309.735 -96.876)"/>
      <path d="M2523 1703s77.98 12.18 112 6.48m2-76.18s28.42-7.27 48 49.7" style="stroke-width:5.00787271;stroke-dasharray:none;stroke:#000;stroke-opacity:1" transform="matrix(.19988 0 0 .1995 -309.735 -96.876)"/>
      <path d="M2685 1682.6c-19.31-17.45-43-11.69-43-11.69s37.22 4.57 33.74 55.09" style="stroke-width:5.00787271;stroke-dasharray:none;stroke:#000;stroke-opacity:1" transform="matrix(.19988 0 0 .1995 -309.735 -96.876)"/>
      <path d="M2675 1726.6c-14.21-35.44-40-16.59-40-16.59s34.39 19.73 31.4 56.99" style="stroke-width:5.00787271;stroke-dasharray:none;stroke:#000;stroke-opacity:1" transform="matrix(.19988 0 0 .1995 -309.735 -96.876)"/>
      <path d="M2667 1767c-14.44-29.56-37.26-22.3-37.26-22.3s-117.7-2.13-173.08-30.63c0 0-30.11 29.44-41.95-1.97s41.67-27.99 41.67-27.99" style="stroke-width:5.00787271;stroke-dasharray:none;stroke:#000;stroke-opacity:1" transform="matrix(.19988 0 0 .1995 -309.735 -96.876)"/>
      <path d="M2418 1719s17.53 23.95 32 29" style="stroke-width:5.00787271;stroke-dasharray:none;stroke:#000;stroke-opacity:1" transform="matrix(.19988 0 0 .1995 -309.735 -96.876)"/>
      <path d="M2456 1714s-17.13 24.75-6.55 34m6.55-64c-13.6-6.16-26.34-11.47-37.82-21.29-8.34 1.83-41.38 4.55-54.44-8.35 9.9-.31 18.36-2.18 23.77-5.26-9.91-38.95-82.22-79.17-64.82-117.71 34.55-16.03 59.9 54.11 130.17 49.02" style="stroke-width:5.00787271;stroke-dasharray:none;stroke:#000;stroke-opacity:1" transform="matrix(.19988 0 0 .1995 -309.735 -96.876)"/>
      <path d="M2405 1571s35.4 77.99 79 94m0 0 14-13m-65-36 24-16m-13 34 21-13m-2 31 14-15m2.68-344s11.03 22.45 9.09 29.14c-1.93 6.68-12.33 9.57-12.33 9.57s5.58 12.99 3.5 17.95-11.65 7.64-11.65 7.64 7.19 12.04 4.92 16.98c-2.27 4.93-13.54 6.11-13.54 6.11s5.58 9.09 4.42 13.52c-1.15 4.43-9.75 8.95-9.75 8.95s2.65 10.4 0 14.33c-2.64 3.95-13.09 5.32-13.09 5.32s.41 13.96-3.44 17.13c-3.87 3.17-12.52 0-12.52 0s3.98 14.19 0 18.19-15.68 0-15.68 0 3.92 12.83 0 17.02-17.4 1.08-17.4 1.08-.88 11.34-5 14.28c-4.13 2.94-15.31 0-15.31 0s-1.22 10.33-5.38 13.24c-4.15 2.91-16.16.54-16.16.54s-3.84 13.69-9.24 16.19c-5.41 2.49-16.81-3.24-16.81-3.24s2.88 11.15-1.85 14.3-19-5.3-19-5.3-5.1 12.41-9.49 13.66-13.7-3.17-13.7-3.17L2271 1549" style="stroke-width:5.00787271;stroke-dasharray:none;stroke:#000;stroke-opacity:1" transform="matrix(.19988 0 0 .1995 -309.735 -96.876)"/>
      <path d="M2294 1539s15.43 66.94 52 109m-16 8 16-8m-73-88 24-7m-9 44 22-10m-14 26 21-9m-10 26 20-9m-7 24 16-8m-57-60 24-7m-103 134s11.43-10 14.65-16.7c3.24-6.71 3.95-22.09 3.95-22.09s4.59 11.12 8.03 16.03c3.42 4.91 12.37 13.12 12.37 13.12s7.53-10.44 9.06-16.41c1.54-5.97 0-18.23 0-18.23s8.11 11.1 12.82 15.28c4.7 4.18 14.87 9.74 14.87 9.74s5.49-10.8 5.85-17.09c.35-6.29-4.26-19.31-4.26-19.31s8.51 8.42 13.43 11.38c4.92 2.97 15.64 6.28 15.64 6.28s3.26-8.63 3.57-14.73-2.94-21.27-2.94-21.27M2480 1293c8.05 13.52 14.34 35.99 24.23 40.64 23.9 11.23 30.98-3.53 46.15 1.55 14.49 4.86 8.67 16.49 13.53 26.27 5.71 11.48 29.18-.62 35.05 8.17 18.68 27.96-6.54 49.62 38.04 44.66" style="stroke-width:5.00787271;stroke-dasharray:none;stroke:#000;stroke-opacity:1" transform="matrix(.19988 0 0 .1995 -309.735 -96.876)"/>
      <path d="M2480 1350.04c47.15-28.53 21.95 12.04 44.75 19.43 14.99 4.86 24.25-11.01 39.08-1.52 10.74 6.87 1.91 36.58 12.52 41.9 7.68 3.87 30.82-2.52 36.03 5.33 10.35 15.6 2.04 43.82 21.62 43.82" style="stroke-width:5.00787271;stroke-dasharray:none;stroke:#000;stroke-opacity:1" transform="matrix(.19988 0 0 .1995 -309.735 -96.876)"/>
      <path d="M2472 1365c1.31 6.2 5.45 15.92 12.98 17.17 15.67 2.61 28.91-14.53 35.15-12.97 11.45 2.86 4.65 34.95 17.19 41.21 10.16 5.08 26.33-5.55 34.76.77 11.4 8.53 2.91 33.8 13.37 40.07 26.11 15.65 25.23-14.85 43.55 21.75" style="stroke-width:5.00787271;stroke-dasharray:none;stroke:#000;stroke-opacity:1" transform="matrix(.19988 0 0 .1995 -309.735 -96.876)"/>
      <path d="M2465 1393.24c13.31-31.78 28.18 7.32 37.22 16.39 7.16 7.2 21.36-4.76 27.33-.76 10.42 6.98 13.2 31.19 22.41 40.44 6.36 6.38 23.4-2.13 28.1 4.95 19.97 30.09-14.63 45.43 34.94 50.74" style="stroke-width:5.00787271;stroke-dasharray:none;stroke:#000;stroke-opacity:1" transform="matrix(.19988 0 0 .1995 -309.735 -96.876)"/>
      <path d="M2451 1421.07c12.66 6.69 36.68-8.64 48.49-5.69 11.65 2.9 4.16 30.05 14.22 35.78 6.47 3.7 32.07-1.94 35.08 3.47 4.42 7.92-6.92 38.65 1.87 42.64 6.88 3.12 32.74.76 36.28 5.47 6.18 8.23-5.26 24.07 3.06 29.26" style="stroke-width:5.00787271;stroke-dasharray:none;stroke:#000;stroke-opacity:1" transform="matrix(.19988 0 0 .1995 -309.735 -96.876)"/>
      <path d="M2451 1421c17.16 7.55 8.37 22.84 18.76 35.85 6.77 8.49 31.01-2.39 40.55 0 9.6 2.4-4.12 29.85 2.07 36.04 7.2 7.22 24.82 3.81 33.33 8.08 9.16 4.59-13.76 57.29 26.29 45.25" style="stroke-width:5.00787271;stroke-dasharray:none;stroke:#000;stroke-opacity:1" transform="matrix(.19988 0 0 .1995 -309.735 -96.876)"/>
      <path d="M2427 1452c2.06 28.88 28.4 3.54 37.78 9.83 12.1 8.11-4.91 27.02 2.54 34.5 6.97 7.01 35.59-3.71 40.9 1.63 9.33 9.38-.1 26.78 6.52 37.45 4.24 6.8 50.49 15.59 43.55 15.59" style="stroke-width:5.00787271;stroke-dasharray:none;stroke:#000;stroke-opacity:1" transform="matrix(.19988 0 0 .1995 -309.735 -96.876)"/>
      <path d="M2424 1460c3.64 52.81 39.31 31.69 44.77 45.38 4.07 10.19-.18 27.88 8.34 36.42 9.16 9.19 62.77-21.7 28.66 32.2M2392 1476c5.23 9.7 31.31 14.9 40.17 21.26 14.49 10.42-4.84 22.64 8.69 37.91 13.36 15.09 36.77-4.35 32.66 22.14-1.41 9.14-13.56 18.61-20.76 22.69" style="stroke-width:5.00787271;stroke-dasharray:none;stroke:#000;stroke-opacity:1" transform="matrix(.19988 0 0 .1995 -309.735 -96.876)"/>
      <path d="M2393 1480c15.73 10.26-8.28 42.37 8.94 48.09 5.49 1.81 29.08-1.31 31.73 5.24 8.67 21.59-7.53 31.4 19.33 46.67" style="stroke-width:5.00787271;stroke-dasharray:none;stroke:#000;stroke-opacity:1" transform="matrix(.19988 0 0 .1995 -309.735 -96.876)"/>
      <path d="M2360 1505c2.02 4.98 7.24 10.82 12.11 13.57 3.45 1.97 18.64 4.22 20.72 7.27 9.45 13.83-5.96 20.42 2.47 27.13 12.09 9.61 31.3 20.32 57.7 27.03m-112-60c9.74 1.22 17.48.92 26.51 3.19 1.14.29 25.46 34.66 28.49 43.81m136-267c12.27 40.42 35.75 35.15 53 23.96m11.84 11.04c-1.46 24.02-4.93 44.47 30.16 39.15M2200 1736v151m0-818c-19.33 0-35 15.89-35 35.5s15.67 35.5 35 35.5" style="stroke-width:5.00787271;stroke-dasharray:none;stroke:#000;stroke-opacity:1" transform="matrix(.19988 0 0 .1995 -309.735 -96.876)"/>
      <path d="M2200 1085c-10.49 0-19 8.73-19 19.5s8.51 19.5 19 19.5" style="stroke-width:5.00787271;stroke-dasharray:none;stroke:#000;stroke-opacity:1" transform="matrix(.19988 0 0 .1995 -309.735 -96.876)"/>
      <path d="M13 6.565a6.5 6.5 0 1 1-13 0 6.5 6.5 0 0 1 13 0" transform="matrix(.19988 0 0 -.1995 139.395 88.66)" style="stroke-width:5.00787271;stroke-dasharray:none;stroke:#000;stroke-opacity:1"/>
      <path d="M1939 692.258s-74.62-8.368-101.27 25.105-43.02 96.995-42.26 109.168c-27.41 11.411-63.58 7.988-63.58 7.988s-11.42-27.388-8.37-44.884c3.04-17.498 17.41-42.247 19.79-49.45 2.38-7.202-3.42-15.595-11.8-26.246-8.37-10.65 2.67-39.939 2.67-39.939s9.51 23.583 19.41 28.148c9.9 4.564 9.52 31.191 9.52 31.191s14.47-46.407 73.1-56.296S1939 692.258 1939 692.258" style="stroke-width:5.00787271;stroke-dasharray:none;stroke:#000;stroke-opacity:1" transform="matrix(.19988 0 0 .1995 -309.735 -96.876)"/>
      <path d="M1939 692.042s-66.29-73.811-185 9.958m42 125c43.62 88.009 82.29 119.683 154 165m-218-157s57.67 195.13 214 285m4-128s-8.59 64.81-3.25 128" style="stroke-width:5.00787271;stroke-dasharray:none;stroke:#000;stroke-opacity:1" transform="matrix(.19988 0 0 .1995 -309.735 -96.876)"/>
      <path d="m1949.25 992 25.75 21.46s-6.9 112.62-2.68 122.54c-17.63-9.54-26.32-16.05-26.32-16.05m29.65-107.04s17.8-2.29 22.35.39c-9.85 32.8-10.21 98.71-4.17 129.7-10.24-2.21-20.83-7.64-20.83-7.64M1805 844s-19.05 8.512-33.3 10.566c-7.33 1.055-31.7 3.434-31.7 3.434m76 6s-23.25 9.554-36.41 11.607C1769.67 877.155 1748 878 1748 878m75-3s-25.7 9.208-32.81 10.89C1778.8 888.583 1754 890 1754 890m82 4s-22.74 8.793-38.12 12.702c-9.74 2.473-35.88 2.295-35.88 2.295M2076 1047s-26.22-11.08-33.71-20.58-21.97-12.05-44.29-12.42" style="stroke-width:5.00787271;stroke-dasharray:none;stroke:#000;stroke-opacity:1" transform="matrix(.19988 0 0 .1995 -309.735 -96.876)"/>
      <path d="M1950 991.875s22.99-12.303 80 26.125m67.78 71s-10.29 15.98-13 22.8c-2.71 6.83-4.78 20.2-4.78 20.2s16.74-1.46 24.02-4.66c7.28-3.21 18.98-12.9 18.98-12.9m8.1 4.56s-7.76 9.22-8.07 22.46c-.32 13.25 2.18 23.54 2.18 23.54s15.25-4.48 24.67-13.29c9.42-8.8 11.12-18.35 11.12-18.35m21.3 3.64s-9.92 7.87-2.61 23.28C2187 1175.68 2200 1189 2200 1189m-123.39-142s-15.44 10.49-20.2 17.05c-4.77 6.57-8.41 20.54-8.41 20.54s18.45 3.25 25.93 2.2 18.07-6.88 18.07-6.88" style="stroke-width:5.00787271;stroke-dasharray:none;stroke:#000;stroke-opacity:1" transform="matrix(.19988 0 0 .1995 -309.735 -96.876)"/>
      <path d="M2072 1022c6.73 66.31 61.47 118 128 118" style="stroke-width:5.00787271;stroke-dasharray:none;stroke:#000;stroke-opacity:1" transform="matrix(.19988 0 0 .1995 -309.735 -96.876)"/>
      <path d="M2098 1020c4.39 40.42 30.7 73.89 67 87" style="stroke-width:5.00787271;stroke-dasharray:none;stroke:#000;stroke-opacity:1" transform="matrix(.19988 0 0 .1995 -309.735 -96.876)"/>
      <path d="M2118.4 1004c-3.78 40.35 19.83 72.04 50.6 84" style="stroke-width:5.00787271;stroke-dasharray:none;stroke:#000;stroke-opacity:1" transform="matrix(.19988 0 0 .1995 -309.735 -96.876)"/>
      <path d="M2119 1004s-9.93 12.59-20.51 15.24-23.37 2.76-26.45 2.76-5.86-8.76-42.04-4.44" style="stroke-width:5.00787271;stroke-dasharray:none;stroke:#000;stroke-opacity:1" transform="matrix(.19988 0 0 .1995 -309.735 -96.876)"/>
      <path d="M2200 1015.67s-24.77 11.41-44.58 8.99c-19.8-2.42-74.96-31.438-35.59-95.66m-21.83 90-6-23" style="stroke-width:5.00787271;stroke-dasharray:none;stroke:#000;stroke-opacity:1" transform="matrix(.19988 0 0 .1995 -309.735 -96.876)"/>
      <path d="M2109 988.106 2084 998s4.56-17.435 1.34-28m21.66-10.635s-11.64 8.947-30 10.635c7-12.191-.87-26.935 12.48-35" style="stroke-width:5.00787271;stroke-dasharray:none;stroke:#000;stroke-opacity:1" transform="matrix(.19988 0 0 .1995 -309.735 -96.876)"/>
      <path d="M2059.92 852s13.18 25.738 23.9 31.099c10.71 5.359 13.86 4.704 21.1 9.279 4.08 2.575 14.08 11.431 14.08 31.257 0 8.681.18 11.249-17.35 12.009-29.19 4.292-28.47-31.516-22.19-35.001 9.12 1.658 15.09 15.821 15.09 15.821s-3.92-9.19-11.15-14.026c-4.74-3.173-10.48-3.515-14.25-4.905-14.54-5.367-13.8-26.391-9.23-45.533M2200 997.273s-16.69 18.427-37.89 14.057c-21.19-4.37-54.31-31.151-28.95-69.33" style="stroke-width:5.00787271;stroke-dasharray:none;stroke:#000;stroke-opacity:1" transform="matrix(.19988 0 0 .1995 -309.735 -96.876)"/>
      <path d="M2123.23 923.826c2.56 10.294 8.68 19.174 19.38 19.174 10.71 0 19.39-8.584 19.39-19.174s-8.68-19.174-19.39-19.174c-4.65 0-15.96-.993-23.7-.528-5.65.339 2.88 13.931 4.32 19.703z" style="stroke-width:5.00787271;stroke-dasharray:none;stroke:#000;stroke-opacity:1" transform="matrix(.19988 0 0 .1995 -309.735 -96.876)"/>
      <path d="M19 9.564a9.5 9.5 0 1 1-19 0 9.5 9.5 0 0 1 19 0" transform="matrix(.19988 0 0 -.1995 117.408 89.258)" style="stroke-width:5.00787271;stroke-dasharray:none;stroke:#000;stroke-opacity:1"/>
      <path d="M2200 982.212s-22.81 16.445-38.3 14.651c-17.32-2.005-34.74-34.271-12.86-45.454 9.63-4.921 14.35.066 23.66-6.299 10.09-6.897 10.23-21.067-1.41-39.534-12.57-19.915-35.3-15.91-43.71-18.182-8.41-2.273-13.85-14.394-13.85-14.394s-9.53 12.686-.94 27.345m87.41-13.343s-33.73-.633-28.44 17.998" style="stroke-width:5.00787271;stroke-dasharray:none;stroke:#000;stroke-opacity:1" transform="matrix(.19988 0 0 .1995 -309.735 -96.876)"/>
      <path d="M2178.43 921s1.26 5.586 4.66 13.447c3.41 7.861 7.36 12.534 7.36 12.534s-38.95 18.48-37.41 27.815c1.55 9.336 15.87 22.86 46.96-7.598" style="stroke-width:5.00787271;stroke-dasharray:none;stroke:#000;stroke-opacity:1" transform="matrix(.19988 0 0 .1995 -309.735 -96.876)"/>
      <path d="M2200 967.207c-31.09 30.443-45.41 16.926-46.96 7.595-1.54-9.331 37.41-27.802 37.41-27.802s4.59 13.049.39 16.392c0 0-22.72 1.351-10.97 19.108" style="stroke-width:5.00787271;stroke-dasharray:none;stroke:#000;stroke-opacity:1" transform="matrix(.19988 0 0 .1995 -309.735 -96.876)"/>
      <path d="M2190.76 947s6.09 9.422 5.14 12.465c-.97 3.042-13.44 7.589-14.93 15.727s-.82 7.806-.82 7.806M2200 839c-5.52 0-10 4.253-10 9.501 0 5.246 4.48 9.499 10 9.499" style="stroke-width:5.00787271;stroke-dasharray:none;stroke:#000;stroke-opacity:1" transform="matrix(.19988 0 0 .1995 -309.735 -96.876)"/>
      <path d="M2200 811s-15.62 14.337-7.81 31m7.81 34s-15.98-4.076-7.54-21m.54-13s-18.01.981-18 6.547 17.92 6.453 17.92 6.453m-.92 0s-52.89 11.046-70 28m53-34.425s-41.11-8.332-82 38.425m90.76-45s-7.21-2.131-12.37-6.696-6.37-8.366-6.37-8.366c-.22.22 1.81-4.21 6.37-8.039s12.37-5.412 12.37-5.412-.16-10.739 2.42-16.779C2188.76 790.667 2200 779 2200 779" style="stroke-width:5.00787271;stroke-dasharray:none;stroke:#000;stroke-opacity:1" transform="matrix(.19988 0 0 .1995 -309.735 -96.876)"/>
      <path d="M2165 827s-55.12 14.2-90 48m125-239s-6.3 12.979-9.25 17.657c-2.94 4.678-7.91 10.607-7.91 10.607s-1.11 6.631 0 10.009c1.11 3.376 6.72 9.088 6.72 9.088s.57 16.522-4.41 27.876c-4.96 11.353-10.45 15.573-10.45 15.573s-3.15 10.662-.88 16.852c2.26 6.19 5.43 11.504 5.43 11.504l-5.97 9.834m26.72-10s-6.04 11.765-8.97 15.63c-2.94 3.864-7.8 7.913-7.8 7.913s-.51 4.777 0 7.911c.5 3.135 3.52 10.547 3.52 10.547M2183 778s-12.42-14.645-17.25-19.018C2160.93 754.609 2155 751 2155 751m0 0s-7.11 10.168-8.87 15.422c-1.75 5.253-.95 13.578-.95 13.578m40.82 16.542L2171.41 782s-10.34 22.527-8.09 33" style="stroke-width:5.00787271;stroke-dasharray:none;stroke:#000;stroke-opacity:1" transform="matrix(.19988 0 0 .1995 -309.735 -96.876)"/>
      <path d="M2164 798.822s-7.66-9.526-11.81-13.497c-4.16-3.971-12.95-10.325-12.95-10.325s-4.06 14.389-5.15 22.418C2133.01 805.447 2133 823 2133 823" style="stroke-width:5.00787271;stroke-dasharray:none;stroke:#000;stroke-opacity:1" transform="matrix(.19988 0 0 .1995 -309.735 -96.876)"/>
      <path d="M2184 813s-43.79 1.586-61 17m-.08-.552 10.08-17.219s-8.03-4.25-11.93-5.202c-3.89-.952-6.91.794-10.99-.756S2098.09 797 2098.09 797s-4.96 17.216-2.31 25.883c2.64 8.667 17.88 22.117 17.88 22.117" style="stroke-width:5.00787271;stroke-dasharray:none;stroke:#000;stroke-opacity:1" transform="matrix(.19988 0 0 .1995 -309.735 -96.876)"/>
      <path d="M2096 822.772s-11.81-5.974-17.19-9.955C2073.44 808.836 2064 799 2064 799s.1 23.021 1.91 35.749c1.82 12.728 9.41 40.251 9.41 40.251" style="stroke-width:5.00787271;stroke-dasharray:none;stroke:#000;stroke-opacity:1" transform="matrix(.19988 0 0 .1995 -309.735 -96.876)"/>
      <path d="M2106 838s-11.05-2.794-19.69-4.499c-8.64-1.706-20.31 1.492-20.31 1.492" style="stroke-width:5.00787271;stroke-dasharray:none;stroke:#000;stroke-opacity:1" transform="matrix(.19988 0 0 .1995 -309.735 -96.876)"/>
      <path d="M10.075 5a5 5 0 1 1-10 0 5 5 0 0 1 10 0" transform="matrix(-.19988 0 0 .1995 115.61 142.923)" style="stroke-width:5.00787271;stroke-dasharray:none;stroke:#000;stroke-opacity:1"/>
      <path d="M2200 1225.34s-25.99 10.73-42.28 13.05c-16.28 2.33-35.5 4.83-54.44-.85-18.93-5.68-39-22.14-54.12-39.81S2019 1134 2019 1134m-25 9 35 16m171 68s-8.17 8.08-10.86 12.78c-2.7 4.71-7.2 10.97-5.91 17.13 1.27 6.14 16.77 11.09 16.77 11.09m0 64s-8.17-8.08-10.86-12.78c-2.7-4.71-7.2-10.97-5.91-17.13 1.27-6.14 16.77-11.09 16.77-11.09m-53-12s8.08-8.17 12.78-10.86c4.71-2.69 10.97-7.19 17.13-5.92 6.14 1.28 11.09 16.78 11.09 16.78m-41 0s8.08 8.64 12.78 11.5c4.71 2.85 10.97 7.61 17.13 6.26 6.14-1.35 11.09-17.76 11.09-17.76" style="stroke-width:5.00787271;stroke-dasharray:none;stroke:#000;stroke-opacity:1" transform="matrix(.19988 0 0 .1995 -309.735 -96.876)"/>
      <path d="M2200 1268c-6.63 0-12 5.14-12 11.5 0 6.35 5.37 11.5 12 11.5m-476.68-487.379s-13.75-7.554-24.77-28.273S1681.49 724 1681.49 724c-25.36 86.047-13.02 151.93 80.51 185" style="stroke-width:5.00787271;stroke-dasharray:none;stroke:#000;stroke-opacity:1" transform="matrix(.19988 0 0 .1995 -309.735 -96.876)"/>
      <path d="M1740 858c-18.75-11.162-40.49-31.999-57-54m-7.72 29c-11.23 89.533 53.41 117.219 116.72 131" style="stroke-width:5.00787271;stroke-dasharray:none;stroke:#000;stroke-opacity:1" transform="matrix(.19988 0 0 .1995 -309.735 -96.876)"/>
      <path d="M1773 929.998c-23.03.156-44.49-7.5-61-20.998m-22 4c.9 101.72 91.67 117.56 147 113.41" style="stroke-width:5.00787271;stroke-dasharray:none;stroke:#000;stroke-opacity:1" transform="matrix(.19988 0 0 .1995 -309.735 -96.876)"/>
      <path d="M1718 992c24.65 105.82 99.56 79.13 155 75" style="stroke-width:5.00787271;stroke-dasharray:none;stroke:#000;stroke-opacity:1" transform="matrix(.19988 0 0 .1995 -309.735 -96.876)"/>
      <path d="M1764 1064c52.85 72.67 105.47 48.17 152 36.22" style="stroke-width:5.00787271;stroke-dasharray:none;stroke:#000;stroke-opacity:1" transform="matrix(.19988 0 0 .1995 -309.735 -96.876)"/>
      <path d="M1795 1098c31.87 81.47 120.38 43.83 167 31.83" style="stroke-width:5.00787271;stroke-dasharray:none;stroke:#000;stroke-opacity:1" transform="matrix(.19988 0 0 .1995 -309.735 -96.876)"/>
      <path d="M1994 1143c-43.64 70.39-135.66 35.44-151 3.68" style="stroke-width:5.00787271;stroke-dasharray:none;stroke:#000;stroke-opacity:1" transform="matrix(.19988 0 0 .1995 -309.735 -96.876)"/>
      <path d="M2036 1175c-53.31 38.46-105.65 52.47-147 4.35" style="stroke-width:5.00787271;stroke-dasharray:none;stroke:#000;stroke-opacity:1" transform="matrix(.19988 0 0 .1995 -309.735 -96.876)"/>
      <path d="M2064 1213.2c-31 29.84-92.78 38.75-114-.2m-142-224.297c-27.05 3.256-49.65.747-75-11.703m117 65c-25.16 11.96-57.61 12.17-84 5.99m127 35.01c-17.93 10.96-47.75 14.57-69 12.4m113 18.6c-20 12.23-46.22 15.37-67 18m103 4c-12.86 16.45-39.49 27.61-59 30m115-7c-21.31 18.09-42.83 25.72-62 31" style="stroke-width:5.00787271;stroke-dasharray:none;stroke:#000;stroke-opacity:1" transform="matrix(.19988 0 0 .1995 -309.735 -96.876)"/>
      <path d="M2047 1196c-15.61 10.58-31.26 21.51-59 27m-312-487.563c-99.2-79.623-45.6-195.564-13.97-247.437-31.83 18.073-190.44 123.428 12.51 345" style="stroke-width:5.00787271;stroke-dasharray:none;stroke:#000;stroke-opacity:1" transform="matrix(.19988 0 0 .1995 -309.735 -96.876)"/>
      <path d="M1576.09 600c-58.47 141.774-6.68 247.314 113.91 313" style="stroke-width:5.00787271;stroke-dasharray:none;stroke:#000;stroke-opacity:1" transform="matrix(.19988 0 0 .1995 -309.735 -96.876)"/>
      <path d="M1557.76 759c-10.19 100.038 84.27 214.167 160.24 233" style="stroke-width:5.00787271;stroke-dasharray:none;stroke:#000;stroke-opacity:1" transform="matrix(.19988 0 0 .1995 -309.735 -96.876)"/>
      <path d="M1561.46 813c-14.37 131.501 78.58 230.49 209.54 254" style="stroke-width:5.00787271;stroke-dasharray:none;stroke:#000;stroke-opacity:1" transform="matrix(.19988 0 0 .1995 -309.735 -96.876)"/>
      <path d="M1583 938c17.49 132.49 96.63 146.7 212 160" style="stroke-width:5.00787271;stroke-dasharray:none;stroke:#000;stroke-opacity:1" transform="matrix(.19988 0 0 .1995 -309.735 -96.876)"/>
      <path d="M1843 1147.07c-100.74 27.51-206.72-30.75-219-107.07" style="stroke-width:5.00787271;stroke-dasharray:none;stroke:#000;stroke-opacity:1" transform="matrix(.19988 0 0 .1995 -309.735 -96.876)"/>
      <path d="M1916 1201.21c-95.25 11.17-233.09 11.62-261-100.21" style="stroke-width:5.00787271;stroke-dasharray:none;stroke:#000;stroke-opacity:1" transform="matrix(.19988 0 0 .1995 -309.735 -96.876)"/>
      <path d="M1977 1236.12c-83.17 26.52-201.66 22.57-256-53.12" style="stroke-width:5.00787271;stroke-dasharray:none;stroke:#000;stroke-opacity:1" transform="matrix(.19988 0 0 .1995 -309.735 -96.876)"/>
      <path d="M2048 1261.62c-59.73 66.41-186.98 20.14-246-21.62" style="stroke-width:5.00787271;stroke-dasharray:none;stroke:#000;stroke-opacity:1" transform="matrix(.19988 0 0 .1995 -309.735 -96.876)"/>
      <path d="M2063.48 1213c8.72 60.59-21.16 54.61-62.48 26.7M1671 780c-16.08-18.851-48.7-53.079-51-67m-36 45c11.21 41.748 61.7 90.265 91 114m19 75c-35.58-13.751-76.4-56.903-77-57m112 136c-45.73-8.57-88.15-42.631-100-59m151 116c-42.19-6.21-62.36-10.16-101-27m131 70.73c-46.85 3.18-120.12-23.09-123-25.73m202 78.24c-49.79 13.94-143.7-7.17-145-7.24m206 41c-48.35 20.09-102.43 14.54-137 13.57m198 20.43c-20.45 21.92-66.42 28.36-96 26.77" style="stroke-width:5.00787271;stroke-dasharray:none;stroke:#000;stroke-opacity:1" transform="matrix(.19988 0 0 .1995 -309.735 -96.876)"/>
      <path d="M2177 1262s-84.41-9.01-112-27m92 36s-82.65-11.84-95-20m85 28s-62-3.18-99-17m112 28s-88.79-.54-121-18m161 463.83c-10.4.95-20.97-7.11-21.58-4.19-21.83 104.61-22.04 204.64 21.58 255.36m-22-255c-31.08-22.3-67.33-15.23-97.45-35.36-2.26-1.5-35.86-16.52-34.51-17.86 80.13-64.59 96.23-147.64 101.62-249.78" style="stroke-width:5.00787271;stroke-dasharray:none;stroke:#000;stroke-opacity:1" transform="matrix(.19988 0 0 .1995 -309.735 -96.876)"/>
      <path d="M2200 1664c-43.88 0-78.95-13-107-34m107 12c-60.28 0-72.02-10.92-96-29m96 11c-28.41 0-63-9.69-88-27m67.77-166c-23.06 26.4 11.72 37.66 20.23 64" style="stroke-width:5.00787271;stroke-dasharray:none;stroke:#000;stroke-opacity:1" transform="matrix(.19988 0 0 .1995 -309.735 -96.876)"/>
      <path d="M2172.07 1452c-10.45 81.96-16.95 101.17-28.93 137.4-2.83 8.55 38.9 15.6 56.86 15.6m-36 249c-21.72 2.32-65.32 24.87-63.97 48" style="stroke-width:5.00787271;stroke-dasharray:none;stroke:#000;stroke-opacity:1" transform="matrix(.19988 0 0 .1995 -309.735 -96.876)"/>
      <path d="M2103.29 1890.44c8.22 6.66 21.99 22.2 19.99 34.28-5.87 35.43-62.2 2.64-52.06-31.34 12.62-42.33 79.28-77.49 98.78-114.38" style="stroke-width:5.00787271;stroke-dasharray:none;stroke:#000;stroke-opacity:1" transform="matrix(.19988 0 0 .1995 -309.735 -96.876)"/>
      <path d="M2165 1821c-20.13 10.61-54.6 30.23-62 50m38-58c-19.89 20.81-99.35 31.78-94.81 68" style="stroke-width:5.00787271;stroke-dasharray:none;stroke:#000;stroke-opacity:1" transform="matrix(.19988 0 0 .1995 -309.735 -96.876)"/>
      <path d="M2049.92 1866.39c13.27 4.87 25.72 21.59 17.54 35.23-14.02 23.4-73.57-13.25-48.27-48.7 33.79-47.35 129.37-62.2 132.81-133.92" style="stroke-width:5.00787271;stroke-dasharray:none;stroke:#000;stroke-opacity:1" transform="matrix(.19988 0 0 .1995 -309.735 -96.876)"/>
      <path d="M2178 1732c-4.31 6.23-8.6 12.47-12.91 18.69-16.68 24.06-32.13 42.79-57.34 57.99-15.99 9.63-39.05 19.28-49.75 34.32m58-133c-13.03 25.28-30.86 40.29-49.31 53.31-21.6 15.24-38.88 16.67-69.01 30.2-8.9 3.99-19.9 11-25.53 19.11-57.81 83.29 83.75 77.98 29.72 21.78" style="stroke-width:5.00787271;stroke-dasharray:none;stroke:#000;stroke-opacity:1" transform="matrix(.19988 0 0 .1995 -309.735 -96.876)"/>
      <path d="M2079 1806c-30.03 15.24-78.18 7.08-87 44m144-135c-29.41 54.71-46.11 59.82-88.35 75.88-18.98 7.21-47.06 18.6-58.65 28.12m84-126c-70.43 88.13-128 46.15-177.47 100.15-50.32 54.94 83.31 66.51 34.23 13.95" style="stroke-width:5.00787271;stroke-dasharray:none;stroke:#000;stroke-opacity:1" transform="matrix(.19988 0 0 .1995 -309.735 -96.876)"/>
      <path d="M2031 1780c-12.37 4.61-29.06 10-42.46 11.23-29 2.67-55.08-8.28-61.54 25.77m165-114c-25.63 60.36-145.3 77.37-163 84m245-411c-68.41-9.44-109-56.96-109-93" style="stroke-width:5.00787271;stroke-dasharray:none;stroke:#000;stroke-opacity:1" transform="matrix(.19988 0 0 .1995 -309.735 -96.876)"/>
      <path d="M2164 1408c-88.01-14.68-133-81.57-133-129" style="stroke-width:5.00787271;stroke-dasharray:none;stroke:#000;stroke-opacity:1" transform="matrix(.19988 0 0 .1995 -309.735 -96.876)"/>
      <path d="M2180 1431c-108.25-8.25-164-89.91-164-145m128 82-12 32m-9-40-14 30m-5-42-18 28m-3-43-15 24m6-42-23 23m15-45-29 15m163 37.02s-37.62-1.55-56 22.98m31 7-18-19" style="stroke-width:5.00787271;stroke-dasharray:none;stroke:#000;stroke-opacity:1" transform="matrix(.19988 0 0 .1995 -309.735 -96.876)"/>
      <path d="M2140 1425.37s-8.33 11.98-13.97 17.01c-5.63 5.03-19.56 12.62-19.56 12.62s-5.92-13.77-6.43-21.3c-.51-7.52 3.62-22.7 3.62-22.7m-20.66-10.96s-11.02 8.65-17.82 11.07c-6.81 2.43-22.18 2.89-22.18 2.89s1.11-13.8 2.92-20.13c1.8-6.33 7.9-17.87 7.9-17.87m-10.82-10.89s-11.59 5.13-18.06 5.79-19.94-2.15-19.94-2.15 3.18-12.46 6.4-18.18c3.21-5.73 12.72-15.57 12.72-15.57m-4.12-18s-32.89-.05-42-20" style="stroke-width:5.00787271;stroke-dasharray:none;stroke:#000;stroke-opacity:1" transform="matrix(.19988 0 0 .1995 -309.735 -96.876)"/>
      <path d="M1956 1301s0 59.46 47.5 112.63S2143 1487 2143 1487" style="stroke-width:5.00787271;stroke-dasharray:none;stroke:#000;stroke-opacity:1" transform="matrix(.19988 0 0 .1995 -309.735 -96.876)"/>
      <path d="M1935 1293s-.49 72.36 50.94 131.88C2037.38 1484.38 2137 1507 2137 1507" style="stroke-width:5.00787271;stroke-dasharray:none;stroke:#000;stroke-opacity:1" transform="matrix(.19988 0 0 .1995 -309.735 -96.876)"/>
      <path d="M1935.03 1293.07c-244.06-5.18-223.46 281.41 11.97 286.93m0 0s-2.01 56.7-62 80m0-.1s-21.96 1.53-41.27-5.74-64.37-22.59-80.65-21.05c-16.28 1.53-37.59 24.11-5.17 37.89m-.07 0s-4.82 12.09-3.66 19c1.16 6.92 11.34 19.82 11.34 19.82s-5.71 12.79-4.66 19.13c1.04 6.34 10.14 16.05 10.14 16.05m94-67.07s-57.27 1.26-107-6.93" style="stroke-width:5.00787271;stroke-dasharray:none;stroke:#000;stroke-opacity:1" transform="matrix(.19988 0 0 .1995 -309.735 -96.876)"/>
      <path d="M1877 1703s-77.98 12.18-112 6.48m-2-76.18s-28.42-7.27-48 49.7" style="stroke-width:5.00787271;stroke-dasharray:none;stroke:#000;stroke-opacity:1" transform="matrix(.19988 0 0 .1995 -309.735 -96.876)"/>
      <path d="M1715 1682.6c19.31-17.45 43-11.69 43-11.69s-37.21 4.57-33.73 55.09" style="stroke-width:5.00787271;stroke-dasharray:none;stroke:#000;stroke-opacity:1" transform="matrix(.19988 0 0 .1995 -309.735 -96.876)"/>
      <path d="M1725 1726.6c14.21-35.44 40-16.59 40-16.59s-34.39 19.73-31.4 56.99" style="stroke-width:5.00787271;stroke-dasharray:none;stroke:#000;stroke-opacity:1" transform="matrix(.19988 0 0 .1995 -309.735 -96.876)"/>
      <path d="M1733 1767c14.45-29.56 37.26-22.3 37.26-22.3s117.7-2.13 173.08-30.63c0 0 30.11 29.44 41.95-1.97s-41.67-27.99-41.67-27.99" style="stroke-width:5.00787271;stroke-dasharray:none;stroke:#000;stroke-opacity:1" transform="matrix(.19988 0 0 .1995 -309.735 -96.876)"/>
      <path d="M1982 1719s-17.53 23.95-32 29" style="stroke-width:5.00787271;stroke-dasharray:none;stroke:#000;stroke-opacity:1" transform="matrix(.19988 0 0 .1995 -309.735 -96.876)"/>
      <path d="M1944 1714s17.13 24.75 6.55 34m-6.55-64c13.6-6.16 26.34-11.47 37.81-21.29 8.35 1.83 41.39 4.55 54.46-8.35-9.91-.31-18.37-2.18-23.78-5.26 9.91-38.95 82.22-79.17 64.82-117.71-34.54-16.03-59.9 54.11-130.17 49.02" style="stroke-width:5.00787271;stroke-dasharray:none;stroke:#000;stroke-opacity:1" transform="matrix(.19988 0 0 .1995 -309.735 -96.876)"/>
      <path d="M1995 1571s-35.4 77.99-79 94m0 0-14-13m65-36-24-16m13 34-21-13m2 31-14-15m-2.69-344s-11.02 22.45-9.08 29.14c1.93 6.68 12.34 9.57 12.34 9.57s-5.59 12.99-3.51 17.95c2.07 4.96 11.64 7.64 11.64 7.64s-7.18 12.04-4.91 16.98c2.26 4.93 13.53 6.11 13.53 6.11s-5.57 9.09-4.41 13.52c1.15 4.43 9.75 8.95 9.75 8.95s-2.65 10.4 0 14.33c2.64 3.95 13.08 5.32 13.08 5.32s-.4 13.96 3.45 17.13c3.86 3.17 12.52 0 12.52 0s-3.98 14.19 0 18.19 15.68 0 15.68 0-3.93 12.83 0 17.02c3.92 4.19 17.4 1.08 17.4 1.08s.88 11.34 5.01 14.28c4.12 2.94 15.3 0 15.3 0s1.22 10.33 5.37 13.24c4.16 2.91 16.16.54 16.16.54s3.85 13.69 9.26 16.19c5.4 2.49 16.8-3.24 16.8-3.24s-2.88 11.15 1.85 14.3 19-5.3 19-5.3 5.1 12.41 9.49 13.66 13.69-3.17 13.69-3.17L2129 1549" style="stroke-width:5.00787271;stroke-dasharray:none;stroke:#000;stroke-opacity:1" transform="matrix(.19988 0 0 .1995 -309.735 -96.876)"/>
      <path d="M2106 1539s-15.43 66.94-52 109m16 8-16-8m73-88-24-7m9 44-22-10m14 26-21-9m10 26-20-9m7 24-16-8m57-60-24-7m103 134s-11.42-10-14.66-16.7c-3.23-6.71-3.95-22.09-3.95-22.09s-4.58 11.12-8.02 16.03c-3.43 4.91-12.37 13.12-12.37 13.12s-7.52-10.44-9.06-16.41 0-18.23 0-18.23-8.12 11.1-12.82 15.28-14.88 9.74-14.88 9.74-5.49-10.8-5.84-17.09c-.36-6.29 4.26-19.31 4.26-19.31s-8.51 8.42-13.43 11.38c-4.92 2.97-15.64 6.28-15.64 6.28s-3.26-8.63-3.57-14.73 2.94-21.27 2.94-21.27M1920 1293c-8.05 13.52-14.35 35.99-24.23 40.64-23.9 11.23-30.98-3.53-46.15 1.55-14.49 4.86-8.67 16.49-13.54 26.27-5.7 11.48-29.17-.62-35.04 8.17-18.68 27.96 6.54 49.62-38.04 44.66" style="stroke-width:5.00787271;stroke-dasharray:none;stroke:#000;stroke-opacity:1" transform="matrix(.19988 0 0 .1995 -309.735 -96.876)"/>
      <path d="M1920 1350.04c-47.15-28.53-21.95 12.04-44.76 19.43-14.98 4.86-24.24-11.01-39.07-1.52-10.74 6.87-1.91 36.58-12.52 41.9-7.68 3.87-30.82-2.52-36.03 5.33-10.35 15.6-2.05 43.82-21.62 43.82" style="stroke-width:5.00787271;stroke-dasharray:none;stroke:#000;stroke-opacity:1" transform="matrix(.19988 0 0 .1995 -309.735 -96.876)"/>
      <path d="M1928 1365c-1.32 6.2-5.45 15.92-12.99 17.17-15.66 2.61-28.91-14.53-35.14-12.97-11.45 2.86-4.65 34.95-17.19 41.21-10.16 5.08-26.33-5.55-34.76.77-11.39 8.53-2.91 33.8-13.37 40.07-26.11 15.65-25.23-14.85-43.55 21.75" style="stroke-width:5.00787271;stroke-dasharray:none;stroke:#000;stroke-opacity:1" transform="matrix(.19988 0 0 .1995 -309.735 -96.876)"/>
      <path d="M1935 1393.24c-13.32-31.78-28.18 7.32-37.21 16.39-7.17 7.2-21.37-4.76-27.35-.76-10.41 6.98-13.19 31.19-22.4 40.44-6.36 6.38-23.4-2.13-28.1 4.95-19.97 30.09 14.63 45.43-34.94 50.74" style="stroke-width:5.00787271;stroke-dasharray:none;stroke:#000;stroke-opacity:1" transform="matrix(.19988 0 0 .1995 -309.735 -96.876)"/>
      <path d="M1949 1421.07c-12.66 6.69-36.67-8.64-48.49-5.69-11.65 2.9-4.16 30.05-14.22 35.78-6.47 3.7-32.07-1.94-35.08 3.47-4.41 7.92 6.92 38.65-1.86 42.64-6.88 3.12-32.74.76-36.28 5.47-6.19 8.23 5.26 24.07-3.07 29.26" style="stroke-width:5.00787271;stroke-dasharray:none;stroke:#000;stroke-opacity:1" transform="matrix(.19988 0 0 .1995 -309.735 -96.876)"/>
      <path d="M1949 1421c-17.15 7.55-8.36 22.84-18.76 35.85-6.77 8.49-31.01-2.39-40.55 0-9.6 2.4 4.12 29.85-2.07 36.04-7.2 7.22-24.82 3.81-33.33 8.08-9.16 4.59 13.76 57.29-26.29 45.25" style="stroke-width:5.00787271;stroke-dasharray:none;stroke:#000;stroke-opacity:1" transform="matrix(.19988 0 0 .1995 -309.735 -96.876)"/>
      <path d="M1973 1452c-2.06 28.88-28.39 3.54-37.78 9.83-12.09 8.11 4.91 27.02-2.53 34.5-6.97 7.01-35.6-3.71-40.91 1.63-9.33 9.38.11 26.78-6.53 37.45-4.23 6.8-50.48 15.59-43.54 15.59" style="stroke-width:5.00787271;stroke-dasharray:none;stroke:#000;stroke-opacity:1" transform="matrix(.19988 0 0 .1995 -309.735 -96.876)"/>
      <path d="M1976 1460c-3.64 52.81-39.31 31.69-44.77 45.38-4.06 10.19.18 27.88-8.33 36.42-9.17 9.19-62.78-21.7-28.67 32.2m113.77-98c-5.24 9.7-31.32 14.9-40.17 21.26-14.5 10.42 4.84 22.64-8.69 37.91-13.36 15.09-36.76-4.35-32.66 22.14 1.41 9.14 13.56 18.61 20.75 22.69" style="stroke-width:5.00787271;stroke-dasharray:none;stroke:#000;stroke-opacity:1" transform="matrix(.19988 0 0 .1995 -309.735 -96.876)"/>
      <path d="M2007 1480c-15.73 10.26 8.28 42.37-8.94 48.09-5.49 1.81-29.08-1.31-31.72 5.24-8.68 21.59 7.52 31.4-19.34 46.67" style="stroke-width:5.00787271;stroke-dasharray:none;stroke:#000;stroke-opacity:1" transform="matrix(.19988 0 0 .1995 -309.735 -96.876)"/>
      <path d="M2040 1505c-2.02 4.98-7.24 10.82-12.11 13.57-3.45 1.97-18.64 4.22-20.72 7.27-9.45 13.83 5.97 20.42-2.47 27.13-12.09 9.61-31.29 20.32-57.7 27.03m112-60c-9.74 1.22-17.48.92-26.51 3.19-1.15.29-25.45 34.66-28.49 43.81m-136-267c-12.27 40.42-35.75 35.15-53 23.96m-11.84 11.04c1.46 24.02 4.93 44.47-30.16 39.15m366.93-450.715a6.5 6.5 0 1 1 13 0 6.5 6.5 0 0 1-13 0" style="stroke-width:5.00787271;stroke-dasharray:none;stroke:#000;stroke-opacity:1" transform="matrix(.19988 0 0 .1995 -309.735 -96.876)"/>
    </g>
  </g>
</svg>
